{"title":"Stolichani v poveche - Season 4 - Episode 6","uid":7756607,"size":589357344,"categoryP":"video","categoryS":"tv_shows","magnet":"?xt=urn:btih:1719d37d9f0c5ec03977574760cceeab7791b0ad&amp;dn=Stolichani+v+poveche+-+Season+4+-+Episode+6&amp;tr=udp%3A%2F%2Ftracker.openbittorrent.com%3A80&amp;tr=udp%3A%2F%2Fopen.demonii.com%3A1337&amp;tr=udp%3A%2F%2Ftracker.coppersurfer.tk%3A6969&amp;tr=udp%3A%2F%2Fexodus.desync.com%3A6969","seeders":1,"leechers":0,"uploader":null,"files":1,"time":1351117755,"description":"HQ WEBrip\n\nFormat                                   : AVI\nFormat/Info                              : Audio Video Interleave\nFile size                                : 562 MiB\nDuration                                 : 42mn 46s\nOverall bit rate                         : 1 837 Kbps\nWriting application                      : Lavf52.84.0\n\nVideo\nFormat                                   : MPEG-4 Visual\nFormat profile                           : Advanced Simple@L5\nFormat settings, BVOP                    : 2\nFormat settings, QPel                    : No\nFormat settings, GMC                     : No warppoints\nFormat settings, Matrix                  : Default (H.263)\nMuxing mode                              : Packed bitstream\nCodec ID                                 : XVID\nCodec ID/Hint                            : XviD\nDuration                                 : 42mn 46s\nBit rate                                 : 1 698 Kbps\nWidth                                    : 720 pixels\nHeight                                   : 400 pixels\nDisplay aspect ratio                     : 16:9\nFrame rate                               : 25.000 fps\nColor space                              : YUV\nChroma subsampling                       : 4:2:0\nBit depth                                : 8 bits\nScan type                                : Progressive\nCompression mode                         : Lossy\nBits/(Pixel*Frame)                       : 0.236\nStream size                              : 520 MiB (92%)\nWriting library                          : XviD 1.1.2 (UTC 2006-11-01)\n\nAudio\nID                                       : 1\nFormat                                   : AC-3\nFormat/Info                              : Audio Coding 3\nMode extension                           : CM (complete main)\nFormat settings, Endianness              : Big\nCodec ID                                 : 2000\nDuration                                 : 42mn 46s\nBit rate mode                            : Constant\nBit rate                                 : 128 Kbps\nChannel(s)                               : 2 channels\nChannel positions                        : Front: L R\nSampling rate                            : 48.0 KHz\nBit depth                                : 16 bits\nCompression mode                         : Lossy\nStream size                              : 39.2 MiB (7%)\nAlignment                                : Aligned on interleaves\nInterleave, duration                     : 32 ms (0.80 video frame)\nInterleave, preload duration             : 512 ms\n\n","torrent":{"xt":"urn:btih:1719d37d9f0c5ec03977574760cceeab7791b0ad","amp;dn":"Stolichani+v+poveche+-+Season+4+-+Episode+6","amp;tr":["udp%3A%2F%2Ftracker.openbittorrent.com%3A80","udp%3A%2F%2Fopen.demonii.com%3A1337","udp%3A%2F%2Ftracker.coppersurfer.tk%3A6969","udp%3A%2F%2Fexodus.desync.com%3A6969"],"infoHash":"1719d37d9f0c5ec03977574760cceeab7791b0ad","infoHashBuffer":{"type":"Buffer","data":[23,25,211,125,159,12,94,192,57,119,87,71,96,204,238,171,119,145,176,173]},"announce":[],"urlList":[]}}